<?xml version="1.0" encoding="UTF-8"?><svg xmlns="http://www.w3.org/2000/svg" xmlns:xlink="http://www.w3.org/1999/xlink" contentScriptType="text/ecmascript" width="75pt" zoomAndPan="magnify" contentStyleType="text/css" viewBox="0 0 75 36.000001" height="36.000001pt" preserveAspectRatio="xMidYMid meet" version="1.2"><defs><g/><clipPath xml:id="clip1" id="clip1"><path d="M 1.011719 10 L 17 10 L 17 26 L 1.011719 26 Z M 1.011719 10 "/></clipPath></defs><g xml:id="surface1" id="surface1"><g clip-rule="nonzero" clip-path="url(#clip1)"><g style="fill:rgb(83.139038%,64.709473%,31.759644%);fill-opacity:1;"><g transform="translate(1.036317, 25.398992)"><path style="stroke:none;" d="M 10.84375 0 L 10.109375 -2.8125 L 5.21875 -2.8125 L 4.46875 0 L 0 0 L 4.90625 -15.09375 L 10.328125 -15.09375 L 15.296875 0 Z M 9.265625 -6.15625 L 8.625 -8.625 C 8.46875 -9.164062 8.28125 -9.867188 8.0625 -10.734375 C 7.851562 -11.609375 7.710938 -12.238281 7.640625 -12.625 C 7.578125 -12.269531 7.453125 -11.691406 7.265625 -10.890625 C 7.085938 -10.085938 6.6875 -8.507812 6.0625 -6.15625 Z M 9.265625 -6.15625 "/></g></g></g><g style="fill:rgb(83.139038%,64.709473%,31.759644%);fill-opacity:1;"><g transform="translate(16.327114, 25.398992)"><path style="stroke:none;" d="M 8.734375 0 L 8.734375 -6.359375 C 8.734375 -7.128906 8.625 -7.710938 8.40625 -8.109375 C 8.1875 -8.503906 7.828125 -8.703125 7.328125 -8.703125 C 6.648438 -8.703125 6.160156 -8.429688 5.859375 -7.890625 C 5.554688 -7.347656 5.40625 -6.414062 5.40625 -5.09375 L 5.40625 0 L 1.390625 0 L 1.390625 -11.65625 L 4.421875 -11.65625 L 4.921875 -10.21875 L 5.15625 -10.21875 C 5.5 -10.757812 5.972656 -11.164062 6.578125 -11.4375 C 7.191406 -11.71875 7.894531 -11.859375 8.6875 -11.859375 C 9.96875 -11.859375 10.96875 -11.484375 11.6875 -10.734375 C 12.40625 -9.984375 12.765625 -8.929688 12.765625 -7.578125 L 12.765625 0 Z M 8.734375 0 "/></g></g><g style="fill:rgb(83.139038%,64.709473%,31.759644%);fill-opacity:1;"><g transform="translate(30.435363, 25.398992)"><path style="stroke:none;" d="M 7.09375 -2.96875 C 7.632812 -2.96875 8.285156 -3.101562 9.046875 -3.375 L 9.046875 -0.4375 C 8.503906 -0.207031 7.984375 -0.046875 7.484375 0.046875 C 6.992188 0.148438 6.421875 0.203125 5.765625 0.203125 C 4.421875 0.203125 3.445312 -0.125 2.84375 -0.78125 C 2.25 -1.445312 1.953125 -2.46875 1.953125 -3.84375 L 1.953125 -8.640625 L 0.546875 -8.640625 L 0.546875 -10.28125 L 2.328125 -11.546875 L 3.375 -13.984375 L 6 -13.984375 L 6 -11.65625 L 8.859375 -11.65625 L 8.859375 -8.640625 L 6 -8.640625 L 6 -4.109375 C 6 -3.347656 6.363281 -2.96875 7.09375 -2.96875 Z M 7.09375 -2.96875 "/></g></g><g style="fill:rgb(83.139038%,64.709473%,31.759644%);fill-opacity:1;"><g transform="translate(40.121931, 25.398992)"><path style="stroke:none;" d="M 5.4375 0 L 1.40625 0 L 1.40625 -11.65625 L 5.4375 -11.65625 Z M 1.3125 -14.546875 C 1.3125 -15.148438 1.476562 -15.597656 1.8125 -15.890625 C 2.144531 -16.191406 2.6875 -16.34375 3.4375 -16.34375 C 4.1875 -16.34375 4.726562 -16.191406 5.0625 -15.890625 C 5.40625 -15.585938 5.578125 -15.140625 5.578125 -14.546875 C 5.578125 -13.367188 4.863281 -12.78125 3.4375 -12.78125 C 2.019531 -12.78125 1.3125 -13.367188 1.3125 -14.546875 Z M 1.3125 -14.546875 "/></g></g><g style="fill:rgb(83.139038%,64.709473%,31.759644%);fill-opacity:1;"><g transform="translate(46.970396, 25.398992)"><path style="stroke:none;" d="M 5.28125 -6.546875 C 5.769531 -7.328125 6.1875 -7.929688 6.53125 -8.359375 L 9.140625 -11.65625 L 13.625 -11.65625 L 9.578125 -6.6875 L 13.890625 0 L 9.28125 0 L 6.734375 -4.171875 L 5.4375 -3.171875 L 5.4375 0 L 1.390625 0 L 1.390625 -16 L 5.4375 -16 L 5.4375 -9.703125 C 5.4375 -8.628906 5.359375 -7.578125 5.203125 -6.546875 Z M 5.28125 -6.546875 "/></g></g><g style="fill:rgb(83.139038%,64.709473%,31.759644%);fill-opacity:1;"><g transform="translate(60.852419, 25.398992)"><path style="stroke:none;" d="M 8.984375 0 L 8.21875 -1.546875 L 8.140625 -1.546875 C 7.597656 -0.867188 7.046875 -0.40625 6.484375 -0.15625 C 5.921875 0.0820312 5.191406 0.203125 4.296875 0.203125 C 3.203125 0.203125 2.335938 -0.125 1.703125 -0.78125 C 1.078125 -1.4375 0.765625 -2.363281 0.765625 -3.5625 C 0.765625 -4.800781 1.195312 -5.722656 2.0625 -6.328125 C 2.925781 -6.929688 4.175781 -7.273438 5.8125 -7.359375 L 7.75 -7.421875 L 7.75 -7.578125 C 7.75 -8.535156 7.273438 -9.015625 6.328125 -9.015625 C 5.484375 -9.015625 4.40625 -8.726562 3.09375 -8.15625 L 1.9375 -10.8125 C 3.289062 -11.507812 5.003906 -11.859375 7.078125 -11.859375 C 8.566406 -11.859375 9.722656 -11.488281 10.546875 -10.75 C 11.367188 -10.007812 11.78125 -8.972656 11.78125 -7.640625 L 11.78125 0 Z M 6 -2.640625 C 6.488281 -2.640625 6.90625 -2.789062 7.25 -3.09375 C 7.601562 -3.40625 7.78125 -3.804688 7.78125 -4.296875 L 7.78125 -5.203125 L 6.84375 -5.15625 C 5.519531 -5.113281 4.859375 -4.628906 4.859375 -3.703125 C 4.859375 -2.992188 5.238281 -2.640625 6 -2.640625 Z M 6 -2.640625 "/></g></g></g></svg>